<svg width="51" height="50" viewBox="0 0 51 50" fill="none" xmlns="http://www.w3.org/2000/svg">
<path d="M34.7239 36.4062C34.4112 36.7187 34.0463 36.8663 33.6294 36.8489C33.2124 36.8316 32.8476 36.6666 32.5349 36.3541C32.2221 36.0416 32.0658 35.6684 32.0658 35.2343C32.0658 34.8003 32.2221 34.427 32.5349 34.1145L41.76 24.8958L32.587 15.7291C32.2743 15.4166 32.1266 15.0434 32.144 14.6093C32.1613 14.1753 32.3264 13.802 32.6391 13.4895C32.9518 13.177 33.3253 13.0208 33.7597 13.0208C34.194 13.0208 34.5675 13.177 34.8802 13.4895L45.1478 23.802C45.4605 24.1145 45.6169 24.4791 45.6169 24.8958C45.6169 25.3125 45.4605 25.677 45.1478 25.9895L34.7239 36.4062ZM15.9609 36.25L5.64119 25.9895C5.32848 25.677 5.17212 25.3125 5.17212 24.8958C5.17212 24.4791 5.32848 24.1145 5.64119 23.802L16.0651 13.3854C16.3778 13.0729 16.7513 12.9166 17.1857 12.9166C17.62 12.9166 17.9935 13.0729 18.3062 13.3854C18.619 13.6979 18.7753 14.0711 18.7753 14.5052C18.7753 14.9392 18.619 15.3125 18.3062 15.625L9.02896 24.8958L18.202 34.0625C18.5147 34.375 18.6711 34.7395 18.6711 35.1562C18.6711 35.5729 18.5147 35.9375 18.202 36.25C17.8893 36.5625 17.5158 36.7187 17.0814 36.7187C16.6471 36.7187 16.2736 36.5625 15.9609 36.25Z" fill="url(#paint0_linear_32_32)"/>
<defs>
<linearGradient id="paint0_linear_32_32" x1="25.3945" y1="12.9166" x2="25.3945" y2="36.8503" gradientUnits="userSpaceOnUse">
<stop stop-color="#0D4D7B"/>
<stop offset="1" stop-color="#246FA4"/>
</linearGradient>
</defs>
</svg>
