<svg width="41" height="40" viewBox="0 0 41 40" fill="none" xmlns="http://www.w3.org/2000/svg">
<path d="M23.728 14.6667C23.728 14.5001 23.7836 14.3404 23.8948 14.1876C24.0059 14.0348 24.131 13.9306 24.27 13.8751C25.1039 13.5695 25.9587 13.3334 26.8343 13.1667C27.7099 13.0001 28.6203 12.9167 29.5654 12.9167C30.1769 12.9167 30.7745 12.9515 31.3583 13.0209C31.942 13.0904 32.5119 13.1945 33.0678 13.3334C33.2346 13.389 33.3875 13.4931 33.5264 13.6459C33.6654 13.7987 33.7349 13.9723 33.7349 14.1667C33.7349 14.4723 33.6307 14.7084 33.4222 14.8751C33.2137 15.0417 32.9566 15.0834 32.6508 15.0001C32.1783 14.8612 31.6849 14.757 31.1706 14.6876C30.6564 14.6181 30.1213 14.5834 29.5654 14.5834C28.7592 14.5834 27.9809 14.6598 27.2304 14.8126C26.4799 14.9654 25.7433 15.1945 25.0205 15.5001C24.6314 15.639 24.3187 15.632 24.0824 15.4792C23.8461 15.3265 23.728 15.0556 23.728 14.6667ZM23.728 23.8334C23.728 23.6667 23.7836 23.5001 23.8948 23.3334C24.0059 23.1667 24.131 23.0556 24.27 23.0001C25.1039 22.6945 25.9587 22.4654 26.8343 22.3126C27.7099 22.1598 28.6203 22.0834 29.5654 22.0834C30.1769 22.0834 30.7745 22.1181 31.3583 22.1876C31.942 22.257 32.5119 22.3612 33.0678 22.5001C33.2346 22.5556 33.3875 22.6598 33.5264 22.8126C33.6654 22.9654 33.7349 23.139 33.7349 23.3334C33.7349 23.639 33.6307 23.8751 33.4222 24.0417C33.2137 24.2084 32.9566 24.2501 32.6508 24.1667C32.1783 24.0279 31.6849 23.9237 31.1706 23.8542C30.6564 23.7848 30.1213 23.7501 29.5654 23.7501C28.7592 23.7501 27.9809 23.8195 27.2304 23.9584C26.4799 24.0973 25.7433 24.3195 25.0205 24.6251C24.6314 24.764 24.3187 24.764 24.0824 24.6251C23.8461 24.4862 23.728 24.2223 23.728 23.8334ZM23.728 19.2501C23.728 19.0834 23.7836 18.9237 23.8948 18.7709C24.0059 18.6181 24.131 18.514 24.27 18.4584C25.1039 18.1529 25.9587 17.9167 26.8343 17.7501C27.7099 17.5834 28.6203 17.5001 29.5654 17.5001C30.1769 17.5001 30.7745 17.5348 31.3583 17.6042C31.942 17.6737 32.5119 17.7779 33.0678 17.9167C33.2346 17.9723 33.3875 18.0765 33.5264 18.2292C33.6654 18.382 33.7349 18.5556 33.7349 18.7501C33.7349 19.0556 33.6307 19.2917 33.4222 19.4584C33.2137 19.6251 32.9566 19.6667 32.6508 19.5834C32.1783 19.4445 31.6849 19.3404 31.1706 19.2709C30.6564 19.2015 30.1213 19.1667 29.5654 19.1667C28.7592 19.1667 27.9809 19.2431 27.2304 19.3959C26.4799 19.5487 25.7433 19.7779 25.0205 20.0834C24.6314 20.2223 24.3187 20.2154 24.0824 20.0626C23.8461 19.9098 23.728 19.639 23.728 19.2501ZM10.7189 27.5001C12.22 27.5001 13.6724 27.6737 15.0761 28.0209C16.4799 28.3681 17.8628 28.889 19.2249 29.5834V11.7917C17.974 10.9584 16.6189 10.3126 15.1595 9.85425C13.7002 9.39591 12.22 9.16675 10.7189 9.16675C9.66266 9.16675 8.62722 9.29869 7.61263 9.56258C6.59803 9.82647 5.57649 10.1529 4.548 10.5417V28.6251C5.40971 28.2362 6.38956 27.9515 7.48754 27.7709C8.58552 27.5904 9.66266 27.5001 10.7189 27.5001ZM21.7266 29.5834C23.1164 28.889 24.4785 28.3681 25.8128 28.0209C27.147 27.6737 28.5647 27.5001 30.0657 27.5001C31.122 27.5001 32.213 27.5834 33.3388 27.7501C34.4646 27.9167 35.4305 28.139 36.2367 28.4167V10.5417C35.2916 10.0695 34.2909 9.7223 33.2346 9.50008C32.1783 9.27786 31.122 9.16675 30.0657 9.16675C28.5647 9.16675 27.1123 9.39591 25.7085 9.85425C24.3048 10.3126 22.9775 10.9584 21.7266 11.7917V29.5834ZM20.4757 32.8751C20.2533 32.8751 20.0518 32.8542 19.8711 32.8126C19.6905 32.7709 19.5306 32.6945 19.3916 32.5834C18.0852 31.7779 16.6953 31.1529 15.2221 30.7084C13.7488 30.264 12.2478 30.0417 10.7189 30.0417C9.69046 30.0417 8.68976 30.1667 7.71687 30.4167C6.74397 30.6667 5.77107 30.9723 4.79817 31.3334C4.15884 31.639 3.54036 31.5973 2.94272 31.2084C2.34508 30.8195 2.04626 30.264 2.04626 29.5417V10.2501C2.04626 9.83341 2.14355 9.45147 2.33813 9.10425C2.53271 8.75703 2.82458 8.48619 3.21374 8.29175C4.38122 7.73619 5.59734 7.32647 6.86211 7.06258C8.12687 6.79869 9.41249 6.66675 10.7189 6.66675C12.4702 6.66675 14.1727 6.90286 15.8267 7.37508C17.4806 7.8473 19.0303 8.56953 20.4757 9.54175C21.8934 8.56953 23.4153 7.8473 25.0414 7.37508C26.6675 6.90286 28.3423 6.66675 30.0657 6.66675C31.3722 6.66675 32.6508 6.79869 33.9017 7.06258C35.1526 7.32647 36.3617 7.73619 37.5292 8.29175C37.9184 8.48619 38.2172 8.75703 38.4257 9.10425C38.6342 9.45147 38.7384 9.83341 38.7384 10.2501V29.5417C38.7384 30.3195 38.4257 30.9098 37.8002 31.3126C37.1748 31.7154 36.5563 31.7223 35.9448 31.3334C34.9997 30.9445 34.0407 30.632 33.0678 30.3959C32.0949 30.1598 31.0942 30.0417 30.0657 30.0417C28.5647 30.0417 27.0914 30.264 25.646 30.7084C24.2005 31.1529 22.8385 31.7779 21.5598 32.5834C21.4208 32.6945 21.261 32.7709 21.0803 32.8126C20.8996 32.8542 20.6981 32.8751 20.4757 32.8751Z" fill="url(#paint0_linear_32_50)"/>
<defs>
<linearGradient id="paint0_linear_32_50" x1="20.3923" y1="6.66675" x2="20.3923" y2="32.8751" gradientUnits="userSpaceOnUse">
<stop stop-color="#0D4D7B"/>
<stop offset="1" stop-color="#246FA4"/>
</linearGradient>
</defs>
</svg>
