<svg width="41" height="40" viewBox="0 0 41 40" fill="none" xmlns="http://www.w3.org/2000/svg">
<path d="M9.34513 35.125C8.40003 35.125 7.46883 34.9653 6.55152 34.6458C5.63422 34.3264 4.82811 33.8055 4.13318 33.0833C5.10608 32.75 5.801 32.2639 6.21796 31.625C6.63491 30.9861 6.84339 30.125 6.84339 29.0416C6.84339 27.8194 7.2673 26.7847 8.11511 25.9375C8.96292 25.0903 9.99836 24.6666 11.2214 24.6666C12.4445 24.6666 13.4799 25.0903 14.3278 25.9375C15.1756 26.7847 15.5995 27.8194 15.5995 29.0416C15.5995 30.8194 14.9949 32.2778 13.7857 33.4166C12.5765 34.5555 11.0963 35.125 9.34513 35.125ZM9.34513 32.625C10.318 32.625 11.1867 32.2778 11.9511 31.5833C12.7155 30.8889 13.0977 30.0416 13.0977 29.0416C13.0977 28.4861 12.924 28.0347 12.5765 27.6875C12.2291 27.3403 11.7774 27.1666 11.2214 27.1666C10.6655 27.1666 10.2138 27.3403 9.86632 27.6875C9.51886 28.0347 9.34513 28.4861 9.34513 29.0416C9.34513 30.125 9.22699 30.9236 8.99072 31.4375C8.75444 31.9514 8.31664 32.2639 7.67731 32.375C7.84409 32.4028 8.12206 32.4514 8.51122 32.5208C8.90038 32.5903 9.17835 32.625 9.34513 32.625ZM18.9351 25.25L15.1825 21.2916L30.8601 5.62498C31.2492 5.23609 31.6801 5.0347 32.1526 5.02081C32.6252 5.00692 33.0699 5.20831 33.4869 5.62498L34.6961 6.83331C35.113 7.24998 35.3145 7.70137 35.3006 8.18748C35.2867 8.67359 35.0852 9.11109 34.6961 9.49998L18.9351 25.25Z" fill="url(#paint0_linear_32_19)"/>
<defs>
<linearGradient id="paint0_linear_32_19" x1="19.7172" y1="5.02014" x2="19.7172" y2="35.125" gradientUnits="userSpaceOnUse">
<stop stop-color="#0D4D7B"/>
<stop offset="1" stop-color="#246FA4"/>
</linearGradient>
</defs>
</svg>
