<svg width="21" height="30" viewBox="0 0 21 30" fill="none" xmlns="http://www.w3.org/2000/svg">
<g clip-path="url(#clip0_32_23)">
<path d="M5.41624 30C8.17568 30 10.4152 27.76 10.4152 25V20H5.41624C2.65679 20 0.417236 22.24 0.417236 25C0.417236 27.76 2.65679 30 5.41624 30Z" fill="#0ACF83"/>
<path d="M0.417236 15C0.417236 12.24 2.65679 10 5.41624 10H10.4152V20H5.41624C2.65679 20 0.417236 17.76 0.417236 15Z" fill="#A259FF"/>
<path d="M0.417236 5C0.417236 2.24 2.65679 0 5.41624 0H10.4152V10H5.41624C2.65679 10 0.417236 7.76 0.417236 5Z" fill="#F24E1E"/>
<path d="M10.4153 0H15.4143C18.1737 0 20.4133 2.24 20.4133 5C20.4133 7.76 18.1737 10 15.4143 10H10.4153V0Z" fill="#FF7262"/>
<path d="M20.4133 15C20.4133 17.76 18.1737 20 15.4143 20C12.6548 20 10.4153 17.76 10.4153 15C10.4153 12.24 12.6548 10 15.4143 10C18.1737 10 20.4133 12.24 20.4133 15Z" fill="#1ABCFE"/>
</g>
<defs>
<clipPath id="clip0_32_23">
<rect width="20" height="30" fill="white" transform="translate(0.415283)"/>
</clipPath>
</defs>
</svg>
