<svg width="40" height="40" viewBox="0 0 40 40" fill="none" xmlns="http://www.w3.org/2000/svg">
<path d="M20 1.6001C9.84904 1.6001 1.59998 9.84917 1.59998 20.0001C1.59998 30.151 9.84904 38.4001 20 38.4001C30.1509 38.4001 38.4 30.151 38.4 20.0001C38.4 9.84917 30.1509 1.6001 20 1.6001ZM20 3.2001C29.2858 3.2001 36.8 10.7142 36.8 20.0001C36.8 20.0572 36.7959 20.1134 36.7953 20.1704C36.2836 20.1232 35.6924 20.0783 34.9406 20.0517C33.8776 20.014 32.5378 20.0249 31.0187 20.1001C31.0751 19.7078 31.1145 19.31 31.1156 18.9017C31.1931 17.4036 30.69 16.0021 29.8719 14.7642C30.0695 14.0812 30.3014 13.2123 30.3594 12.2267C30.4254 11.1032 30.3285 9.85751 29.4265 9.01572L29.1953 8.8001H28.8797C26.7332 8.8001 25.264 9.69867 24.3656 10.411C23.0684 9.90892 21.6098 9.6001 20 9.6001C18.3811 9.6001 16.9084 9.91323 15.5578 10.4142C14.6599 9.70145 13.1894 8.8001 11.0406 8.8001H10.7265L10.4953 9.01416C9.61674 9.82995 9.5358 11.0415 9.5906 12.1595C9.63893 13.1453 9.85736 14.0418 10.0515 14.7579C9.21957 16.02 8.72029 17.4577 8.72029 18.8798C8.72029 19.2891 8.75835 19.6882 8.81404 20.0813C7.36943 20.0143 6.08166 20.0014 5.05935 20.0376C4.30759 20.0642 3.71633 20.1087 3.20466 20.1563C3.20419 20.1041 3.19998 20.0525 3.19998 20.0001C3.19998 10.7142 10.7141 3.2001 20 3.2001ZM11.5172 10.5048C13.1312 10.6577 14.3456 11.3785 14.9078 11.8782L15.2828 12.2095L15.7453 12.0204C17.0105 11.4995 18.4216 11.2001 20 11.2001C21.5784 11.2001 22.9899 11.501 24.1594 12.0126L24.6281 12.2188L25.0109 11.8782C25.5733 11.3783 26.7897 10.6573 28.4047 10.5048C28.6194 10.8608 28.806 11.367 28.7609 12.1329C28.707 13.0495 28.4618 14.0478 28.2765 14.6407L28.1562 15.0267L28.3953 15.3532C29.1869 16.4327 29.5905 17.6008 29.5219 18.836L29.5203 18.8579V18.8798C29.5203 20.8761 28.8014 22.474 27.2703 23.6579C25.7392 24.8419 23.3221 25.6001 19.9203 25.6001C16.5185 25.6001 14.0998 24.8419 12.5687 23.6579C11.0376 22.474 10.3203 20.8761 10.3203 18.8798C10.3203 17.708 10.7434 16.419 11.525 15.3532L11.7594 15.0345L11.6469 14.6548C11.4615 14.0245 11.2342 13.0034 11.189 12.0813C11.1514 11.3144 11.333 10.8297 11.5172 10.5048ZM7.10779 20.8173C7.67314 20.8245 8.32114 20.855 8.97029 20.8876C9.03231 21.137 9.10303 21.3824 9.18904 21.622C6.54315 21.6778 4.56376 21.9438 3.34373 22.172C3.29214 21.7717 3.25105 21.3681 3.2281 20.9595C4.12974 20.8739 5.40077 20.7955 7.10779 20.8173ZM32.8922 20.8298C34.598 20.8081 35.8686 20.8866 36.7703 20.972C36.7474 21.3748 36.707 21.7726 36.6562 22.1673C35.3926 21.9355 33.3597 21.6694 30.6453 21.6267C30.7295 21.3918 30.7997 21.1507 30.8609 20.9063C31.577 20.868 32.2756 20.8376 32.8922 20.8298ZM9.52966 22.4157C10.0071 23.3724 10.6892 24.2265 11.5906 24.9235C12.823 25.8765 14.4253 26.5424 16.3812 26.8985C16.1253 27.1615 15.8926 27.4502 15.6859 27.7548L15.6375 27.7126C15.6419 27.7076 15.2398 27.9088 14.639 27.9626C14.0383 28.0164 13.2973 28.0001 12.6406 28.0001C11.6606 28.0001 11.2289 27.5371 10.539 26.6938C10.157 26.1789 9.69126 25.762 9.23904 25.4454C8.77599 25.1213 8.38098 24.8925 7.89216 24.811L7.82654 24.8001H7.75935C7.38602 24.8001 7.02476 24.8271 6.68748 25.2126C6.51883 25.4053 6.4026 25.7621 6.4781 26.0642C6.5536 26.3662 6.74466 26.5518 6.9156 26.6657C8.00898 27.3946 8.20221 28.8373 8.88748 30.1204C9.52741 31.3955 10.9085 32.0001 12.3203 32.0001H14.4V35.8423C8.77423 33.8565 4.53172 28.9638 3.4656 22.9626C4.69032 22.7319 6.74121 22.4546 9.52966 22.4157ZM30.3062 22.422C33.1564 22.4464 35.2648 22.7233 36.5359 22.9579C35.4712 28.9613 31.2272 33.856 25.6 35.8423V31.6798C25.6 30.4121 25.1837 29.0143 24.4594 27.8485C24.2394 27.4946 23.9807 27.1599 23.6922 26.8595C25.5443 26.4936 27.0659 25.8392 28.25 24.9235C29.1494 24.228 29.83 23.3764 30.3062 22.422ZM18.9594 27.2798H21.2C21.8502 27.2798 22.5443 27.798 23.1 28.6923C23.6556 29.5866 24 30.7874 24 31.6798V36.3188C22.7179 36.6315 21.379 36.8001 20 36.8001C18.6209 36.8001 17.2821 36.6315 16 36.3188V31.6798C16 30.8072 16.3742 29.6091 16.9672 28.711C17.5601 27.8129 18.3091 27.2798 18.9594 27.2798ZM9.84685 28.2251C10.5395 28.9435 11.378 29.6001 12.6406 29.6001C13.2639 29.6001 14.042 29.6226 14.7812 29.5563C14.7839 29.5561 14.7864 29.555 14.789 29.5548C14.6916 29.8348 14.619 30.1165 14.5578 30.4001H12.3203C11.3336 30.4001 10.6366 30.0436 10.3156 29.4017L10.3094 29.3907L10.3047 29.3813C10.1731 29.1371 10.0005 28.6486 9.84685 28.2251Z" fill="#135B8D"/>
</svg>
