<svg width="267" height="246" viewBox="0 0 267 246" fill="none" xmlns="http://www.w3.org/2000/svg">
<path d="M132.936 215.25L52.526 174.506V113.006L11.2119 92.25L132.936 30.75L255.215 92.25V173.481H238.578V101.219L213.346 113.006V174.506L132.936 215.25ZM132.936 136.325L220.278 92.25L132.936 48.9438L46.1487 92.25L132.936 136.325ZM132.936 197.825L196.709 165.281V122.231L132.936 153.75L69.1625 121.719V165.281L132.936 197.825Z" fill="black"/>
<path d="M42.6105 92.3971L133.838 46.4928L223.191 92.3971L131.964 135.947L42.6105 92.3971Z" fill="black" stroke="black"/>
<path d="M69.4789 122.411V165.373L131.964 198.33L196.948 165.373V122.411L133.213 153.014L69.4789 122.411Z" fill="black" stroke="black"/>
</svg>
