<svg width="35" height="34" viewBox="0 0 35 34" fill="none" xmlns="http://www.w3.org/2000/svg">
<path d="M18.7951 32.8333C18.2642 32.8333 17.8776 32.6458 17.6352 32.2708C17.3928 31.8958 17.364 31.4333 17.5486 30.8833L22.6384 16.2583C22.7769 15.8583 23.0308 15.5208 23.4001 15.2458C23.7694 14.9708 24.1503 14.8333 24.5427 14.8333C24.9351 14.8333 25.3218 14.9708 25.7026 15.2458C26.0835 15.5208 26.3432 15.8583 26.4817 16.2583L31.6753 30.7333C31.883 31.3083 31.8599 31.802 31.606 32.2145C31.3521 32.627 30.9251 32.8333 30.3249 32.8333C30.071 32.8333 29.8287 32.7458 29.5978 32.5708C29.367 32.3958 29.2054 32.1708 29.1131 31.8958L27.9705 28.1083H21.3227L20.007 31.9333C19.9146 32.1833 19.7531 32.3958 19.5222 32.5708C19.2914 32.7458 19.049 32.8333 18.7951 32.8333ZM22.0844 25.4833H27.001L24.5773 18.2083H24.5081L22.0844 25.4833ZM10.4161 12.6583C10.7623 13.3083 11.1432 13.9395 11.5587 14.552C11.9742 15.1645 12.4243 15.7958 12.909 16.4458C13.9477 15.2708 14.8133 14.052 15.5058 12.7895C16.1983 11.527 16.7869 10.2083 17.2717 8.83325H3.17964C2.78724 8.83325 2.45831 8.6895 2.19286 8.402C1.9274 8.1145 1.79468 7.75825 1.79468 7.33325C1.79468 6.90825 1.9274 6.552 2.19286 6.2645C2.45831 5.977 2.78724 5.83325 3.17964 5.83325H11.4894V4.33325C11.4894 3.90825 11.6222 3.552 11.8876 3.2645C12.1531 2.977 12.482 2.83325 12.8744 2.83325C13.2668 2.83325 13.5957 2.977 13.8612 3.2645C14.1266 3.552 14.2594 3.90825 14.2594 4.33325V5.83325H22.5691C22.9616 5.83325 23.2905 5.977 23.5559 6.2645C23.8214 6.552 23.9541 6.90825 23.9541 7.33325C23.9541 7.75825 23.8214 8.1145 23.5559 8.402C23.2905 8.6895 22.9616 8.83325 22.5691 8.83325H20.0416C19.5338 10.5583 18.8586 12.252 18.0161 13.9145C17.1736 15.577 16.1406 17.1583 14.9172 18.6583L18.3104 22.3708L17.2717 25.4083L12.8744 20.8333L6.88442 27.3208C6.63051 27.5958 6.3189 27.7333 5.94957 27.7333C5.58025 27.7333 5.26863 27.5833 5.01472 27.2833C4.73773 27.0083 4.59923 26.6708 4.59923 26.2708C4.59923 25.8708 4.73773 25.5208 5.01472 25.2208L11.1086 18.6208C10.5084 17.8458 9.94289 17.0645 9.41198 16.277C8.88108 15.4895 8.39634 14.6833 7.95777 13.8583C7.68078 13.3083 7.65769 12.8333 7.88852 12.4333C8.11935 12.0333 8.53484 11.8333 9.13499 11.8333C9.3889 11.8333 9.63704 11.9145 9.87941 12.077C10.1218 12.2395 10.3007 12.4333 10.4161 12.6583Z" fill="url(#paint0_linear_32_11)"/>
<defs>
<linearGradient id="paint0_linear_32_11" x1="16.8051" y1="2.83325" x2="16.8051" y2="32.8333" gradientUnits="userSpaceOnUse">
<stop stop-color="#0D4D7B"/>
<stop offset="1" stop-color="#246FA4"/>
</linearGradient>
</defs>
</svg>
