<svg width="485" height="352" viewBox="0 0 485 352" fill="none" xmlns="http://www.w3.org/2000/svg">
<g clip-path="url(#clip0_32_84)">
<path d="M282.512 62.0535C291.601 62.0535 298.97 54.7003 298.97 45.6297C298.97 36.559 291.601 29.2058 282.512 29.2058C273.422 29.2058 266.053 36.559 266.053 45.6297C266.053 54.7003 273.422 62.0535 282.512 62.0535Z" fill="#F2F2F2"/>
<path d="M410.185 305.802C434.649 287.208 446.334 255.962 439.019 226.156C438.837 225.416 438.645 224.677 438.443 223.94C433.593 206.247 421.596 189.432 404.109 183.778C389.427 179.032 373.4 182.682 358.083 180.794C328.014 177.089 304.702 152.811 288.299 127.391C271.896 101.971 259.29 73.5179 237.494 52.5176C201.567 17.9022 142.961 10.4495 98.4161 32.9815C53.8718 55.5136 25.4975 105.503 26.7076 155.323C27.9177 205.144 57.5564 252.776 100.599 278.048C116.411 287.332 134.7 293.909 152.9 291.607C168.692 289.61 183.042 281.143 198.76 278.629C223.472 274.676 248.027 285.826 269.401 298.819C290.776 311.812 311.422 327.212 335.711 333.236C359.295 339.084 388.514 322.273 410.185 305.802Z" fill="#F2F2F2"/>
<path d="M375.037 34.0277C374.501 33.671 373.958 33.3326 373.422 32.9882C357.92 23.0947 341.304 15.0573 323.918 9.04205L319.887 64.537H294.331V0.941083C292.722 0.608925 291.101 0.295221 289.48 -3.05176e-05V64.537H259.11C242.39 64.537 226.356 57.9094 214.534 46.112C202.711 34.3147 196.07 18.314 196.07 1.63008V1.63002C194.442 1.98063 192.828 2.35585 191.213 2.75567V64.5371H166.476L162.636 11.6194C144.769 18.4571 127.807 27.449 112.128 38.395C111.856 38.5795 111.585 38.7702 111.32 38.9547C109.958 39.9082 108.614 40.88 107.277 41.8642V253.578H180.179L178.891 235.771L171.802 137.999H314.555L307.467 235.771L306.178 253.578H378.273V36.1683C377.2 35.4425 376.122 34.729 375.037 34.0277ZM191.213 121.853H170.631L166.828 69.3841H191.213V121.853ZM289.48 121.853H254.912V120.813C254.912 120.313 254.813 119.819 254.621 119.357C254.43 118.895 254.148 118.476 253.794 118.123C253.44 117.77 253.019 117.49 252.556 117.299C252.093 117.109 251.597 117.011 251.096 117.012H236.068C235.568 117.012 235.073 117.11 234.61 117.301C234.148 117.492 233.728 117.772 233.374 118.125C233.021 118.478 232.74 118.897 232.549 119.358C232.357 119.82 232.259 120.314 232.259 120.813V121.853H196.07V69.3841H289.48V121.853ZM294.331 121.853V69.3841H319.536L315.733 121.853H294.331Z" fill="#246FA4"/>
<path d="M0 267.135C5.35487 273.467 11.1468 279.417 17.3333 284.943L467.667 285.558C473.853 280.033 479.645 274.082 485 267.751L0 267.135Z" fill="#246FA4"/>
<path d="M305.386 210.115V262.833C305.386 263.504 305.654 264.148 306.13 264.624C306.606 265.099 307.251 265.366 307.925 265.366H386.211C386.884 265.366 387.53 265.099 388.006 264.624C388.482 264.148 388.749 263.504 388.75 262.833V210.115C388.748 209.444 388.48 208.801 388.004 208.327C387.528 207.852 386.884 207.585 386.211 207.584H307.925C307.252 207.585 306.607 207.852 306.131 208.327C305.655 208.801 305.387 209.444 305.386 210.115V210.115Z" fill="#246FA4"/>
<path d="M307.222 210.771V262.182C307.223 262.541 307.366 262.885 307.62 263.139C307.875 263.393 308.219 263.536 308.579 263.536H385.559C385.919 263.536 386.264 263.393 386.518 263.139C386.772 262.885 386.916 262.541 386.916 262.182V210.771C386.916 210.412 386.773 210.067 386.519 209.813C386.264 209.558 385.919 209.415 385.559 209.414H308.579C308.219 209.415 307.874 209.558 307.619 209.813C307.365 210.067 307.222 210.412 307.222 210.771V210.771Z" fill="#060707"/>
<path d="M303.748 273.114C303.892 273.293 304.074 273.438 304.282 273.537C304.489 273.636 304.716 273.687 304.946 273.686H388.772C389.002 273.685 389.228 273.634 389.435 273.536C389.642 273.437 389.824 273.294 389.968 273.116C390.113 272.938 390.216 272.731 390.27 272.509C390.324 272.286 390.327 272.055 390.28 271.831L388.979 265.663C388.925 265.411 388.809 265.177 388.641 264.982C388.473 264.787 388.259 264.636 388.019 264.545C387.844 264.476 387.658 264.442 387.471 264.442H306.242C306.055 264.442 305.869 264.476 305.695 264.545C305.454 264.636 305.24 264.787 305.072 264.982C304.905 265.177 304.788 265.411 304.735 265.663L303.433 271.831C303.387 272.055 303.391 272.286 303.446 272.508C303.5 272.73 303.604 272.937 303.748 273.114V273.114Z" fill="#1C2226"/>
<path d="M384.595 267.098H386.575C386.741 267.098 386.876 266.964 386.876 266.798V265.853C386.876 265.687 386.741 265.553 386.575 265.553H384.595C384.429 265.553 384.294 265.687 384.294 265.853V266.798C384.294 266.964 384.429 267.098 384.595 267.098Z" fill="#246FA4"/>
<path d="M379.431 267.098H381.411C381.578 267.098 381.712 266.964 381.712 266.798V265.853C381.712 265.687 381.578 265.553 381.411 265.553H379.431C379.265 265.553 379.13 265.687 379.13 265.853V266.798C379.13 266.964 379.265 267.098 379.431 267.098Z" fill="#246FA4"/>
<path d="M374.268 267.098H376.248C376.414 267.098 376.549 266.964 376.549 266.798V265.853C376.549 265.687 376.414 265.553 376.248 265.553H374.268C374.102 265.553 373.967 265.687 373.967 265.853V266.798C373.967 266.964 374.102 267.098 374.268 267.098Z" fill="#246FA4"/>
<path d="M369.104 267.098H371.084C371.25 267.098 371.385 266.964 371.385 266.798V265.853C371.385 265.687 371.25 265.553 371.084 265.553H369.104C368.938 265.553 368.803 265.687 368.803 265.853V266.798C368.803 266.964 368.938 267.098 369.104 267.098Z" fill="#246FA4"/>
<path d="M363.941 267.098H365.921C366.087 267.098 366.221 266.964 366.221 266.798V265.853C366.221 265.687 366.087 265.553 365.921 265.553H363.941C363.774 265.553 363.64 265.687 363.64 265.853V266.798C363.64 266.964 363.774 267.098 363.941 267.098Z" fill="#246FA4"/>
<path d="M358.777 267.098H360.757C360.923 267.098 361.058 266.964 361.058 266.798V265.853C361.058 265.687 360.923 265.553 360.757 265.553H358.777C358.611 265.553 358.476 265.687 358.476 265.853V266.798C358.476 266.964 358.611 267.098 358.777 267.098Z" fill="#246FA4"/>
<path d="M353.613 267.098H355.593C355.759 267.098 355.894 266.964 355.894 266.798V265.853C355.894 265.687 355.759 265.553 355.593 265.553H353.613C353.447 265.553 353.312 265.687 353.312 265.853V266.798C353.312 266.964 353.447 267.098 353.613 267.098Z" fill="#246FA4"/>
<path d="M348.45 267.098H350.43C350.596 267.098 350.731 266.964 350.731 266.798V265.853C350.731 265.687 350.596 265.553 350.43 265.553H348.45C348.284 265.553 348.149 265.687 348.149 265.853V266.798C348.149 266.964 348.284 267.098 348.45 267.098Z" fill="#246FA4"/>
<path d="M343.286 267.098H345.266C345.432 267.098 345.567 266.964 345.567 266.798V265.853C345.567 265.687 345.432 265.553 345.266 265.553H343.286C343.12 265.553 342.985 265.687 342.985 265.853V266.798C342.985 266.964 343.12 267.098 343.286 267.098Z" fill="#246FA4"/>
<path d="M338.122 267.098H340.102C340.269 267.098 340.403 266.964 340.403 266.798V265.853C340.403 265.687 340.269 265.553 340.102 265.553H338.122C337.956 265.553 337.821 265.687 337.821 265.853V266.798C337.821 266.964 337.956 267.098 338.122 267.098Z" fill="#246FA4"/>
<path d="M332.959 267.098H334.939C335.105 267.098 335.24 266.964 335.24 266.798V265.853C335.24 265.687 335.105 265.553 334.939 265.553H332.959C332.793 265.553 332.658 265.687 332.658 265.853V266.798C332.658 266.964 332.793 267.098 332.959 267.098Z" fill="#246FA4"/>
<path d="M327.795 267.098H329.775C329.941 267.098 330.076 266.964 330.076 266.798V265.853C330.076 265.687 329.941 265.553 329.775 265.553H327.795C327.629 265.553 327.494 265.687 327.494 265.853V266.798C327.494 266.964 327.629 267.098 327.795 267.098Z" fill="#246FA4"/>
<path d="M322.632 267.098H324.612C324.778 267.098 324.912 266.964 324.912 266.798V265.853C324.912 265.687 324.778 265.553 324.612 265.553H322.632C322.465 265.553 322.331 265.687 322.331 265.853V266.798C322.331 266.964 322.465 267.098 322.632 267.098Z" fill="#246FA4"/>
<path d="M317.468 267.098H319.448C319.614 267.098 319.749 266.964 319.749 266.798V265.853C319.749 265.687 319.614 265.553 319.448 265.553H317.468C317.302 265.553 317.167 265.687 317.167 265.853V266.798C317.167 266.964 317.302 267.098 317.468 267.098Z" fill="#246FA4"/>
<path d="M312.304 267.098H314.284C314.45 267.098 314.585 266.964 314.585 266.798V265.853C314.585 265.687 314.45 265.553 314.284 265.553H312.304C312.138 265.553 312.003 265.687 312.003 265.853V266.798C312.003 266.964 312.138 267.098 312.304 267.098Z" fill="#246FA4"/>
<path d="M307.141 267.098H309.121C309.287 267.098 309.422 266.964 309.422 266.798V265.853C309.422 265.687 309.287 265.553 309.121 265.553H307.141C306.975 265.553 306.84 265.687 306.84 265.853V266.798C306.84 266.964 306.975 267.098 307.141 267.098Z" fill="#246FA4"/>
<path d="M384.656 269.675H386.636C386.802 269.675 386.937 269.54 386.937 269.374V268.429C386.937 268.263 386.802 268.129 386.636 268.129H384.656C384.49 268.129 384.355 268.263 384.355 268.429V269.374C384.355 269.54 384.49 269.675 384.656 269.675Z" fill="#246FA4"/>
<path d="M379.492 269.675H381.472C381.638 269.675 381.773 269.54 381.773 269.374V268.429C381.773 268.263 381.638 268.129 381.472 268.129H379.492C379.326 268.129 379.191 268.263 379.191 268.429V269.374C379.191 269.54 379.326 269.675 379.492 269.675Z" fill="#246FA4"/>
<path d="M374.329 269.675H376.309C376.475 269.675 376.61 269.54 376.61 269.374V268.429C376.61 268.263 376.475 268.129 376.309 268.129H374.329C374.163 268.129 374.028 268.263 374.028 268.429V269.374C374.028 269.54 374.163 269.675 374.329 269.675Z" fill="#246FA4"/>
<path d="M369.165 269.675H371.145C371.311 269.675 371.446 269.54 371.446 269.374V268.429C371.446 268.263 371.311 268.129 371.145 268.129H369.165C368.999 268.129 368.864 268.263 368.864 268.429V269.374C368.864 269.54 368.999 269.675 369.165 269.675Z" fill="#246FA4"/>
<path d="M364.001 269.675H365.981C366.148 269.675 366.282 269.54 366.282 269.374V268.429C366.282 268.263 366.148 268.129 365.981 268.129H364.001C363.835 268.129 363.701 268.263 363.701 268.429V269.374C363.701 269.54 363.835 269.675 364.001 269.675Z" fill="#246FA4"/>
<path d="M358.838 269.675H360.818C360.984 269.675 361.119 269.54 361.119 269.374V268.429C361.119 268.263 360.984 268.129 360.818 268.129H358.838C358.672 268.129 358.537 268.263 358.537 268.429V269.374C358.537 269.54 358.672 269.675 358.838 269.675Z" fill="#246FA4"/>
<path d="M353.674 269.675H355.654C355.82 269.675 355.955 269.54 355.955 269.374V268.429C355.955 268.263 355.82 268.129 355.654 268.129H353.674C353.508 268.129 353.373 268.263 353.373 268.429V269.374C353.373 269.54 353.508 269.675 353.674 269.675Z" fill="#246FA4"/>
<path d="M348.511 269.675H350.491C350.657 269.675 350.792 269.54 350.792 269.374V268.429C350.792 268.263 350.657 268.129 350.491 268.129H348.511C348.344 268.129 348.21 268.263 348.21 268.429V269.374C348.21 269.54 348.344 269.675 348.511 269.675Z" fill="#246FA4"/>
<path d="M343.347 269.675H345.327C345.493 269.675 345.628 269.54 345.628 269.374V268.429C345.628 268.263 345.493 268.129 345.327 268.129H343.347C343.181 268.129 343.046 268.263 343.046 268.429V269.374C343.046 269.54 343.181 269.675 343.347 269.675Z" fill="#246FA4"/>
<path d="M338.183 269.675H340.163C340.33 269.675 340.464 269.54 340.464 269.374V268.429C340.464 268.263 340.33 268.129 340.163 268.129H338.183C338.017 268.129 337.883 268.263 337.883 268.429V269.374C337.883 269.54 338.017 269.675 338.183 269.675Z" fill="#246FA4"/>
<path d="M333.02 269.675H335C335.166 269.675 335.301 269.54 335.301 269.374V268.429C335.301 268.263 335.166 268.129 335 268.129H333.02C332.854 268.129 332.719 268.263 332.719 268.429V269.374C332.719 269.54 332.854 269.675 333.02 269.675Z" fill="#246FA4"/>
<path d="M327.856 269.675H329.836C330.002 269.675 330.137 269.54 330.137 269.374V268.429C330.137 268.263 330.002 268.129 329.836 268.129H327.856C327.69 268.129 327.555 268.263 327.555 268.429V269.374C327.555 269.54 327.69 269.675 327.856 269.675Z" fill="#246FA4"/>
<path d="M322.693 269.675H324.673C324.839 269.675 324.974 269.54 324.974 269.374V268.429C324.974 268.263 324.839 268.129 324.673 268.129H322.693C322.526 268.129 322.392 268.263 322.392 268.429V269.374C322.392 269.54 322.526 269.675 322.693 269.675Z" fill="#246FA4"/>
<path d="M317.529 269.675H319.509C319.675 269.675 319.81 269.54 319.81 269.374V268.429C319.81 268.263 319.675 268.129 319.509 268.129H317.529C317.363 268.129 317.228 268.263 317.228 268.429V269.374C317.228 269.54 317.363 269.675 317.529 269.675Z" fill="#246FA4"/>
<path d="M312.365 269.675H314.345C314.512 269.675 314.646 269.54 314.646 269.374V268.429C314.646 268.263 314.512 268.129 314.345 268.129H312.365C312.199 268.129 312.064 268.263 312.064 268.429V269.374C312.064 269.54 312.199 269.675 312.365 269.675Z" fill="#246FA4"/>
<path d="M307.202 269.675H309.182C309.348 269.675 309.483 269.54 309.483 269.374V268.429C309.483 268.263 309.348 268.129 309.182 268.129H307.202C307.036 268.129 306.901 268.263 306.901 268.429V269.374C306.901 269.54 307.036 269.675 307.202 269.675Z" fill="#246FA4"/>
<path d="M341.798 272.766H361.851C362.017 272.766 362.151 272.632 362.151 272.466V271.521C362.151 271.355 362.017 271.221 361.851 271.221H341.798C341.632 271.221 341.497 271.355 341.497 271.521V272.466C341.497 272.632 341.632 272.766 341.798 272.766Z" fill="#246FA4"/>
<path d="M320.553 220.662H318.8C318.268 220.662 317.838 221.092 317.838 221.622C317.838 222.152 318.268 222.582 318.8 222.582H320.553C321.084 222.582 321.515 222.152 321.515 221.622C321.515 221.092 321.084 220.662 320.553 220.662Z" fill="white"/>
<path d="M340.6 220.662H338.847C338.316 220.662 337.885 221.092 337.885 221.622C337.885 222.152 338.316 222.582 338.847 222.582H340.6C341.132 222.582 341.562 222.152 341.562 221.622C341.562 221.092 341.132 220.662 340.6 220.662Z" fill="white"/>
<path d="M346.28 220.662H344.527C343.996 220.662 343.565 221.092 343.565 221.622C343.565 222.152 343.996 222.582 344.527 222.582H346.28C346.812 222.582 347.243 222.152 347.243 221.622C347.243 221.092 346.812 220.662 346.28 220.662Z" fill="white"/>
<path d="M335.147 220.502H324.253C323.721 220.502 323.291 220.932 323.291 221.462C323.291 221.992 323.721 222.422 324.253 222.422H335.147C335.679 222.422 336.11 221.992 336.11 221.462C336.11 220.932 335.679 220.502 335.147 220.502Z" fill="white"/>
<path d="M361.877 220.502H350.983C350.451 220.502 350.021 220.932 350.021 221.462C350.021 221.992 350.451 222.422 350.983 222.422H361.877C362.409 222.422 362.839 221.992 362.839 221.462C362.839 220.932 362.409 220.502 361.877 220.502Z" fill="white"/>
<path d="M325.899 224.996H324.146C323.615 224.996 323.184 225.426 323.184 225.957C323.184 226.487 323.615 226.917 324.146 226.917H325.899C326.43 226.917 326.861 226.487 326.861 225.957C326.861 225.426 326.43 224.996 325.899 224.996Z" fill="white"/>
<path d="M345.946 224.996H344.193C343.662 224.996 343.231 225.426 343.231 225.957C343.231 226.487 343.662 226.917 344.193 226.917H345.946C346.478 226.917 346.908 226.487 346.908 225.957C346.908 225.426 346.478 224.996 345.946 224.996Z" fill="white"/>
<path d="M351.626 224.996H349.873C349.342 224.996 348.911 225.426 348.911 225.957C348.911 226.487 349.342 226.917 349.873 226.917H351.626C352.158 226.917 352.588 226.487 352.588 225.957C352.588 225.426 352.158 224.996 351.626 224.996Z" fill="white"/>
<path d="M340.493 224.836H329.599C329.067 224.836 328.637 225.266 328.637 225.796C328.637 226.327 329.067 226.757 329.599 226.757H340.493C341.025 226.757 341.455 226.327 341.455 225.796C341.455 225.266 341.025 224.836 340.493 224.836Z" fill="white"/>
<path d="M367.223 224.836H356.329C355.797 224.836 355.366 225.266 355.366 225.796C355.366 226.327 355.797 226.757 356.329 226.757H367.223C367.754 226.757 368.185 226.327 368.185 225.796C368.185 225.266 367.754 224.836 367.223 224.836Z" fill="white"/>
<path d="M331.245 229.331H329.492C328.96 229.331 328.53 229.761 328.53 230.291C328.53 230.821 328.96 231.251 329.492 231.251H331.245C331.776 231.251 332.207 230.821 332.207 230.291C332.207 229.761 331.776 229.331 331.245 229.331Z" fill="white"/>
<path d="M351.292 229.331H349.539C349.008 229.331 348.577 229.761 348.577 230.291C348.577 230.821 349.008 231.251 349.539 231.251H351.292C351.824 231.251 352.254 230.821 352.254 230.291C352.254 229.761 351.824 229.331 351.292 229.331Z" fill="white"/>
<path d="M356.972 229.331H355.219C354.688 229.331 354.257 229.761 354.257 230.291C354.257 230.821 354.688 231.251 355.219 231.251H356.972C357.504 231.251 357.934 230.821 357.934 230.291C357.934 229.761 357.504 229.331 356.972 229.331Z" fill="white"/>
<path d="M345.839 229.171H334.945C334.413 229.171 333.983 229.601 333.983 230.131C333.983 230.661 334.413 231.091 334.945 231.091H345.839C346.371 231.091 346.801 230.661 346.801 230.131C346.801 229.601 346.371 229.171 345.839 229.171Z" fill="white"/>
<path d="M372.569 229.171H361.675C361.143 229.171 360.712 229.601 360.712 230.131C360.712 230.661 361.143 231.091 361.675 231.091H372.569C373.1 231.091 373.531 230.661 373.531 230.131C373.531 229.601 373.1 229.171 372.569 229.171Z" fill="white"/>
<path d="M336.591 233.665H334.838C334.306 233.665 333.876 234.095 333.876 234.625C333.876 235.156 334.306 235.586 334.838 235.586H336.591C337.122 235.586 337.553 235.156 337.553 234.625C337.553 234.095 337.122 233.665 336.591 233.665Z" fill="white"/>
<path d="M356.638 233.665H354.885C354.354 233.665 353.923 234.095 353.923 234.625C353.923 235.156 354.354 235.586 354.885 235.586H356.638C357.17 235.586 357.6 235.156 357.6 234.625C357.6 234.095 357.17 233.665 356.638 233.665Z" fill="white"/>
<path d="M362.318 233.665H360.565C360.034 233.665 359.603 234.095 359.603 234.625C359.603 235.156 360.034 235.586 360.565 235.586H362.318C362.85 235.586 363.28 235.156 363.28 234.625C363.28 234.095 362.85 233.665 362.318 233.665Z" fill="white"/>
<path d="M351.185 233.505H340.291C339.759 233.505 339.329 233.935 339.329 234.465C339.329 234.996 339.759 235.426 340.291 235.426H351.185C351.717 235.426 352.147 234.996 352.147 234.465C352.147 233.935 351.717 233.505 351.185 233.505Z" fill="white"/>
<path d="M340.6 250.901H338.847C338.316 250.901 337.885 251.331 337.885 251.861C337.885 252.391 338.316 252.821 338.847 252.821H340.6C341.132 252.821 341.562 252.391 341.562 251.861C341.562 251.331 341.132 250.901 340.6 250.901Z" fill="white"/>
<path d="M346.28 250.901H344.527C343.996 250.901 343.565 251.331 343.565 251.861C343.565 252.391 343.996 252.821 344.527 252.821H346.28C346.812 252.821 347.243 252.391 347.243 251.861C347.243 251.331 346.812 250.901 346.28 250.901Z" fill="white"/>
<path d="M361.877 251.061H350.983C350.451 251.061 350.021 251.491 350.021 252.021C350.021 252.551 350.451 252.981 350.983 252.981H361.877C362.409 252.981 362.839 252.551 362.839 252.021C362.839 251.491 362.409 251.061 361.877 251.061Z" fill="white"/>
<path d="M320.553 250.901H318.8C318.268 250.901 317.838 251.331 317.838 251.861C317.838 252.391 318.268 252.821 318.8 252.821H320.553C321.084 252.821 321.515 252.391 321.515 251.861C321.515 251.331 321.084 250.901 320.553 250.901Z" fill="white"/>
<path d="M335.147 251.061H324.253C323.721 251.061 323.291 251.491 323.291 252.021C323.291 252.551 323.721 252.981 324.253 252.981H335.147C335.679 252.981 336.11 252.551 336.11 252.021C336.11 251.491 335.679 251.061 335.147 251.061Z" fill="white"/>
<path d="M325.899 246.566H324.146C323.615 246.566 323.184 246.996 323.184 247.527C323.184 248.057 323.615 248.487 324.146 248.487H325.899C326.43 248.487 326.861 248.057 326.861 247.527C326.861 246.996 326.43 246.566 325.899 246.566Z" fill="white"/>
<path d="M345.946 246.566H344.193C343.662 246.566 343.231 246.996 343.231 247.527C343.231 248.057 343.662 248.487 344.193 248.487H345.946C346.478 248.487 346.908 248.057 346.908 247.527C346.908 246.996 346.478 246.566 345.946 246.566Z" fill="white"/>
<path d="M351.626 246.566H349.873C349.342 246.566 348.911 246.996 348.911 247.527C348.911 248.057 349.342 248.487 349.873 248.487H351.626C352.158 248.487 352.588 248.057 352.588 247.527C352.588 246.996 352.158 246.566 351.626 246.566Z" fill="white"/>
<path d="M340.493 246.726H329.599C329.067 246.726 328.637 247.156 328.637 247.687C328.637 248.217 329.067 248.647 329.599 248.647H340.493C341.025 248.647 341.455 248.217 341.455 247.687C341.455 247.156 341.025 246.726 340.493 246.726Z" fill="white"/>
<path d="M331.245 242.232H329.492C328.96 242.232 328.53 242.662 328.53 243.192C328.53 243.722 328.96 244.152 329.492 244.152H331.245C331.776 244.152 332.207 243.722 332.207 243.192C332.207 242.662 331.776 242.232 331.245 242.232Z" fill="white"/>
<path d="M351.292 242.232H349.539C349.008 242.232 348.577 242.662 348.577 243.192C348.577 243.722 349.008 244.152 349.539 244.152H351.292C351.824 244.152 352.254 243.722 352.254 243.192C352.254 242.662 351.824 242.232 351.292 242.232Z" fill="white"/>
<path d="M356.972 242.232H355.219C354.688 242.232 354.257 242.662 354.257 243.192C354.257 243.722 354.688 244.152 355.219 244.152H356.972C357.504 244.152 357.934 243.722 357.934 243.192C357.934 242.662 357.504 242.232 356.972 242.232Z" fill="white"/>
<path d="M345.839 242.392H334.945C334.413 242.392 333.983 242.822 333.983 243.352C333.983 243.883 334.413 244.312 334.945 244.312H345.839C346.371 244.312 346.801 243.883 346.801 243.352C346.801 242.822 346.371 242.392 345.839 242.392Z" fill="white"/>
<path d="M336.591 237.897H334.838C334.306 237.897 333.876 238.327 333.876 238.858C333.876 239.388 334.306 239.818 334.838 239.818H336.591C337.122 239.818 337.553 239.388 337.553 238.858C337.553 238.327 337.122 237.897 336.591 237.897Z" fill="white"/>
<path d="M356.638 237.897H354.885C354.354 237.897 353.923 238.327 353.923 238.858C353.923 239.388 354.354 239.818 354.885 239.818H356.638C357.17 239.818 357.6 239.388 357.6 238.858C357.6 238.327 357.17 237.897 356.638 237.897Z" fill="white"/>
<path d="M362.318 237.897H360.565C360.034 237.897 359.603 238.327 359.603 238.858C359.603 239.388 360.034 239.818 360.565 239.818H362.318C362.85 239.818 363.28 239.388 363.28 238.858C363.28 238.327 362.85 237.897 362.318 237.897Z" fill="white"/>
<path d="M351.185 238.058H340.291C339.759 238.058 339.329 238.487 339.329 239.018C339.329 239.548 339.759 239.978 340.291 239.978H351.185C351.717 239.978 352.147 239.548 352.147 239.018C352.147 238.487 351.717 238.058 351.185 238.058Z" fill="white"/>
<path d="M311.234 301.699L303.005 288.719L328.834 268.173L339.494 256.387C340.879 254.855 342.643 253.714 344.609 253.076C346.575 252.438 348.674 252.326 350.696 252.751C352.719 253.176 354.595 254.123 356.135 255.498C357.676 256.873 358.829 258.628 359.477 260.587C360.438 263.489 360.231 266.651 358.901 269.404C357.57 272.157 355.22 274.287 352.345 275.344L335.487 281.541L311.234 301.699Z" fill="#FFB6B6"/>
<path d="M118.159 207.587V270.672H162.447V207.587C162.448 207.133 162.303 206.691 162.033 206.326C161.764 205.961 161.384 205.691 160.95 205.557C160.745 205.49 160.53 205.456 160.315 205.459H120.298C120.017 205.458 119.739 205.513 119.48 205.619C119.221 205.726 118.985 205.883 118.786 206.08C118.587 206.278 118.43 206.513 118.322 206.771C118.214 207.03 118.159 207.307 118.159 207.587V207.587ZM135.443 229.263C135.454 228.02 135.957 226.831 136.843 225.955C137.728 225.08 138.924 224.589 140.171 224.589C141.417 224.589 142.613 225.08 143.498 225.955C144.384 226.831 144.887 228.02 144.898 229.263V236.583C144.892 237.83 144.391 239.024 143.505 239.904C142.619 240.783 141.42 241.277 140.171 241.277C138.921 241.277 137.722 240.783 136.836 239.904C135.95 239.024 135.449 237.83 135.443 236.583V229.263Z" fill="#1C2226"/>
<path d="M118.023 268.655V274.738C118.024 275.053 118.15 275.355 118.372 275.579C118.595 275.802 118.897 275.929 119.213 275.932H161.393C161.71 275.93 162.012 275.804 162.235 275.58C162.458 275.356 162.583 275.054 162.583 274.738V268.655H118.023Z" fill="#246FA4"/>
<path d="M48.4865 112.541V227.726C48.4876 229.193 49.0725 230.601 50.1126 231.639C51.1527 232.677 52.5631 233.26 54.0341 233.262H225.087C226.558 233.26 227.968 232.677 229.008 231.639C230.048 230.601 230.633 229.193 230.634 227.726V112.541C230.631 111.074 230.045 109.669 229.005 108.632C227.965 107.596 226.556 107.013 225.087 107.011H54.0341C52.5644 107.013 51.1554 107.596 50.1156 108.632C49.0758 109.669 48.49 111.074 48.4865 112.541Z" fill="#246FA4"/>
<path d="M52.4992 113.974V226.305C52.5006 227.089 52.8134 227.841 53.3691 228.395C53.9248 228.95 54.6782 229.262 55.4641 229.263H223.663C224.449 229.262 225.202 228.95 225.758 228.395C226.313 227.841 226.626 227.089 226.628 226.305V113.974C226.627 113.189 226.315 112.435 225.759 111.88C225.204 111.324 224.45 111.011 223.663 111.009H55.4641C54.6772 111.011 53.9232 111.324 53.3673 111.88C52.8115 112.435 52.4993 113.189 52.4992 113.974Z" fill="white"/>
<path d="M83.7141 275.519C83.8853 275.734 84.1029 275.906 84.3505 276.025C84.5982 276.143 84.8695 276.204 85.1441 276.202H185.211C185.485 276.202 185.755 276.141 186.002 276.023C186.249 275.905 186.467 275.734 186.639 275.522C186.812 275.31 186.934 275.062 186.999 274.797C187.063 274.531 187.067 274.255 187.011 273.988L185.458 266.625C185.394 266.325 185.255 266.045 185.055 265.812C184.854 265.579 184.599 265.4 184.311 265.29C184.103 265.209 183.882 265.167 183.658 265.167H86.6913C86.4677 265.167 86.2461 265.209 86.0379 265.29C85.7504 265.4 85.4949 265.579 85.2946 265.812C85.0944 266.045 84.9558 266.325 84.8914 266.625L83.3381 273.988C83.2828 274.255 83.2879 274.531 83.3529 274.796C83.4179 275.061 83.5413 275.308 83.7141 275.519Z" fill="#1C2226"/>
<path d="M218.204 126.483H60.8213C60.6578 126.479 60.5021 126.412 60.3877 126.295C60.2733 126.179 60.2092 126.022 60.2092 125.858C60.2092 125.695 60.2733 125.538 60.3877 125.422C60.5021 125.305 60.6578 125.238 60.8213 125.234H218.204C218.368 125.238 218.523 125.305 218.638 125.422C218.752 125.538 218.816 125.695 218.816 125.858C218.816 126.022 218.752 126.179 218.638 126.295C218.523 126.412 218.368 126.479 218.204 126.483V126.483Z" fill="#246FA4"/>
<path d="M71.5347 122.045C73.5604 122.045 75.2026 120.37 75.2026 118.303C75.2026 116.237 73.5604 114.562 71.5347 114.562C69.509 114.562 67.8668 116.237 67.8668 118.303C67.8668 120.37 69.509 122.045 71.5347 122.045Z" fill="#246FA4"/>
<path d="M84.2055 122.045C86.2312 122.045 87.8733 120.37 87.8733 118.303C87.8733 116.237 86.2312 114.562 84.2055 114.562C82.1798 114.562 80.5376 116.237 80.5376 118.303C80.5376 120.37 82.1798 122.045 84.2055 122.045Z" fill="#246FA4"/>
<path d="M96.8764 122.045C98.9021 122.045 100.544 120.37 100.544 118.303C100.544 116.237 98.9021 114.562 96.8764 114.562C94.8507 114.562 93.2085 116.237 93.2085 118.303C93.2085 120.37 94.8507 122.045 96.8764 122.045Z" fill="#246FA4"/>
<path d="M210.574 115.487H201.575C201.397 115.491 201.228 115.565 201.103 115.692C200.979 115.819 200.909 115.989 200.909 116.167C200.909 116.344 200.979 116.515 201.103 116.642C201.228 116.769 201.397 116.842 201.575 116.846H210.574C210.753 116.844 210.924 116.771 211.05 116.644C211.175 116.517 211.246 116.345 211.246 116.167C211.246 115.988 211.175 115.817 211.05 115.689C210.924 115.562 210.753 115.489 210.574 115.487Z" fill="#246FA4"/>
<path d="M210.574 118.04H201.575C201.397 118.044 201.227 118.117 201.103 118.244C200.978 118.371 200.908 118.542 200.908 118.719C200.908 118.897 200.978 119.068 201.103 119.195C201.227 119.322 201.397 119.395 201.575 119.399H210.574C210.753 119.397 210.924 119.324 211.05 119.197C211.176 119.07 211.247 118.898 211.247 118.719C211.247 118.54 211.176 118.369 211.05 118.242C210.924 118.114 210.753 118.042 210.574 118.04V118.04Z" fill="#246FA4"/>
<path d="M210.574 120.592H201.575C201.397 120.596 201.228 120.67 201.103 120.797C200.979 120.924 200.909 121.094 200.909 121.272C200.909 121.45 200.979 121.62 201.103 121.747C201.228 121.874 201.397 121.948 201.575 121.952H210.574C210.753 121.949 210.924 121.876 211.05 121.749C211.175 121.622 211.246 121.451 211.246 121.272C211.246 121.093 211.175 120.922 211.05 120.795C210.924 120.668 210.753 120.595 210.574 120.592V120.592Z" fill="#246FA4"/>
<path d="M427.536 271.325C427.808 272.114 428.323 272.797 429.008 273.275C429.692 273.754 430.511 274.004 431.347 273.989L447.677 273.569C448.519 273.553 449.333 273.265 449.998 272.749C450.662 272.232 451.141 271.515 451.364 270.705L453.675 246.047C454.494 246.417 455.387 246.6 456.287 246.582C457.069 246.563 457.839 246.39 458.554 246.073C459.269 245.757 459.914 245.303 460.453 244.737C460.992 244.171 461.414 243.506 461.695 242.777C461.976 242.049 462.11 241.273 462.091 240.492C462.071 239.712 461.898 238.944 461.58 238.23C461.263 237.517 460.808 236.873 460.241 236.335C459.675 235.797 459.007 235.376 458.278 235.096C457.548 234.815 456.77 234.681 455.988 234.701C455.628 234.7 455.269 234.737 454.918 234.812C454.535 234.399 454.07 234.07 453.553 233.848C453.035 233.625 452.477 233.513 451.913 233.518L426.795 234.165C426.586 234.173 426.379 234.199 426.175 234.242C425.624 234.345 425.102 234.564 424.643 234.885C424.184 235.205 423.799 235.621 423.514 236.102C423.23 236.584 423.052 237.121 422.993 237.677C422.933 238.233 422.994 238.795 423.171 239.326L427.536 271.325ZM454.148 244.373L455.793 238.497C455.98 237.818 455.984 237.102 455.805 236.421C455.885 236.421 455.956 236.383 456.035 236.383C457.163 236.36 458.253 236.783 459.068 237.561C459.883 238.339 460.355 239.408 460.382 240.533C460.408 241.658 459.987 242.748 459.209 243.563C458.432 244.378 457.362 244.852 456.235 244.882C455.506 244.905 454.785 244.728 454.148 244.373Z" fill="#1C2226"/>
<path d="M426.175 234.242C426.71 237.296 432.727 239.442 439.961 239.069C446.614 238.763 452.054 236.432 453.05 233.669C452.681 233.561 452.298 233.51 451.913 233.518L426.795 234.165C426.586 234.173 426.379 234.199 426.175 234.242V234.242Z" fill="#246FA4"/>
<path d="M441.287 257.775C441.32 257.767 441.352 257.753 441.38 257.734L444.926 255.418C444.969 255.39 445.005 255.352 445.029 255.307C445.053 255.262 445.066 255.212 445.066 255.161C445.066 255.11 445.053 255.059 445.029 255.014C445.005 254.97 444.97 254.931 444.927 254.903L441.241 252.494C441.207 252.472 441.169 252.456 441.129 252.449C441.089 252.441 441.048 252.441 441.009 252.45C440.969 252.458 440.931 252.474 440.898 252.496C440.864 252.519 440.835 252.548 440.813 252.582C440.791 252.616 440.776 252.654 440.768 252.694C440.761 252.733 440.761 252.774 440.769 252.814C440.778 252.853 440.794 252.891 440.817 252.924C440.84 252.958 440.869 252.986 440.903 253.008L444.195 255.16L441.043 257.219C440.982 257.259 440.937 257.319 440.916 257.389C440.895 257.459 440.9 257.534 440.929 257.6C440.959 257.667 441.011 257.721 441.076 257.753C441.142 257.785 441.216 257.793 441.287 257.775H441.287Z" fill="#060707"/>
<path d="M435.686 258.033C435.746 258.018 435.799 257.985 435.84 257.94C435.881 257.894 435.908 257.837 435.916 257.776C435.924 257.716 435.914 257.654 435.887 257.599C435.86 257.544 435.817 257.498 435.764 257.468L432.495 255.598L435.655 253.256C435.687 253.232 435.714 253.202 435.735 253.167C435.756 253.132 435.77 253.094 435.776 253.054C435.781 253.014 435.779 252.973 435.77 252.934C435.76 252.895 435.742 252.858 435.718 252.826C435.694 252.793 435.664 252.766 435.629 252.745C435.594 252.725 435.556 252.711 435.516 252.705C435.476 252.699 435.435 252.701 435.396 252.711C435.357 252.721 435.32 252.738 435.287 252.762L431.75 255.384C431.709 255.415 431.676 255.455 431.654 255.501C431.633 255.547 431.623 255.598 431.626 255.649C431.629 255.7 431.645 255.75 431.671 255.793C431.698 255.836 431.736 255.872 431.78 255.898L435.457 258.001C435.527 258.041 435.609 258.052 435.686 258.033V258.033Z" fill="#060707"/>
<path d="M440.934 259.805C440.964 259.797 440.993 259.785 441.019 259.769C441.054 259.748 441.084 259.721 441.108 259.688C441.132 259.655 441.149 259.618 441.158 259.579C441.168 259.54 441.17 259.499 441.164 259.459C441.157 259.419 441.143 259.381 441.122 259.347L436.095 251.099C436.052 251.029 435.984 250.98 435.905 250.96C435.825 250.941 435.741 250.954 435.672 250.997C435.602 251.039 435.552 251.107 435.532 251.187C435.513 251.266 435.526 251.349 435.568 251.419L440.596 259.667C440.63 259.723 440.681 259.767 440.742 259.791C440.803 259.816 440.871 259.821 440.934 259.805Z" fill="#060707"/>
<path d="M158.317 160.437H131.078C129.967 160.437 129.066 161.336 129.066 162.445V165.1C129.066 166.209 129.967 167.108 131.078 167.108H158.317C159.428 167.108 160.329 166.209 160.329 165.1V162.445C160.329 161.336 159.428 160.437 158.317 160.437Z" fill="#060707"/>
<path d="M174.195 173.779H115.2C114.089 173.779 113.188 174.678 113.188 175.787V178.443C113.188 179.552 114.089 180.451 115.2 180.451H174.195C175.306 180.451 176.207 179.552 176.207 178.443V175.787C176.207 174.678 175.306 173.779 174.195 173.779Z" fill="#E6E6E6"/>
<path d="M174.195 187.122H115.2C114.089 187.122 113.188 188.021 113.188 189.13V191.785C113.188 192.894 114.089 193.793 115.2 193.793H174.195C175.306 193.793 176.207 192.894 176.207 191.785V189.13C176.207 188.021 175.306 187.122 174.195 187.122Z" fill="#E6E6E6"/>
<path d="M179.196 231.801L179.33 232.222L179.337 232.236L183.359 244.438L187.986 258.5L196.691 284.926L196.775 289.031V289.045L197.422 322.067L195.629 326.543L197.647 333.883C197.647 333.883 196.719 322.788 191.741 329.16C188.921 332.781 185.623 336.486 182.916 339.959C186.861 341.552 190.869 342.993 194.94 344.281C195.819 344.562 196.705 344.829 197.591 345.095C197.781 345.152 197.971 345.208 198.161 345.264C211.657 349.247 225.609 351.485 239.676 351.923C240.407 351.944 241.125 351.958 241.821 351.972C242.067 351.979 242.306 351.986 242.545 351.986C243.332 351.993 244.113 352 244.901 352C246.49 352 248.072 351.977 249.647 351.93C261.305 351.602 272.895 350.038 284.222 347.264C284.145 342.597 283.934 337.145 283.631 331.321C283.491 328.465 280.334 325.371 280.144 322.382C280.01 320.136 282.844 318.024 282.696 315.743C281.74 301.703 280.545 307.092 279.658 297.15C279.567 296.174 279.483 295.241 279.405 294.35C278.836 287.964 278.442 283.972 278.442 283.972L282.225 260.177L288.167 222.819L287.71 222.068L287.197 221.816L255.856 206.336L254.154 201.986C253.659 200.732 252.798 199.656 251.684 198.894C250.57 198.133 249.253 197.721 247.903 197.712L227.258 197.628C226.186 197.623 225.129 197.874 224.174 198.358C223.219 198.843 222.394 199.547 221.766 200.414L216.176 208.14L179.196 231.801Z" fill="#402600"/>
<path d="M201.451 279.046L196.775 289.031L193.583 295.851L188.091 324.544L185.342 327.456L182.986 317.147L158.331 322.61C157.523 318.126 158.115 322.761 157.615 317.842C157.756 317.702 157.904 317.562 158.051 317.421C158.445 317.057 158.776 316.713 158.769 316.383C158.487 299.416 159.331 270.541 166.377 253.048C167.481 250.192 168.936 247.484 170.709 244.986C170.849 244.796 170.983 244.607 171.116 244.417C174.365 239.877 176.418 235.407 179.33 232.229V232.222C179.348 232.207 179.364 232.191 179.379 232.173C179.389 232.167 179.399 232.16 179.407 232.152L199.405 221.57L200.263 245.624L200.875 262.914L201.451 279.046Z" fill="#402600"/>
<path d="M273.562 281.882L279.403 294.353L281.441 298.696L286.931 327.386L289.672 330.291L292.033 319.985L293.142 319.758L313.15 315.623L318.981 334.104C320.296 331.919 320.814 329.348 320.447 326.825C320.081 324.303 318.853 321.984 316.971 320.261C316.573 319.901 316.241 319.551 316.251 319.22C316.583 299.264 315.359 262.825 304.312 247.827C300.804 243.067 298.699 238.327 295.636 235.015C295.627 235.006 295.627 234.996 295.617 234.996L288.164 222.818L287.709 222.071L287.197 221.815L273.562 281.882Z" fill="#402600"/>
<path d="M238.177 191.765C253.346 191.765 265.643 179.494 265.643 164.357C265.643 149.22 253.346 136.949 238.177 136.949C223.008 136.949 210.711 149.22 210.711 164.357C210.711 179.494 223.008 191.765 238.177 191.765Z" fill="#FFB6B6"/>
<path d="M275.3 145.213C275.087 144.986 274.831 144.804 274.546 144.678C274.261 144.552 273.954 144.485 273.642 144.481L274.055 143.337C274.19 142.976 274.226 142.586 274.161 142.207C274.095 141.828 273.929 141.474 273.681 141.18C273.433 140.885 273.11 140.662 272.747 140.533C272.384 140.404 271.993 140.374 271.614 140.446L270.11 140.735L270.252 139.732C270.306 139.359 270.262 138.977 270.124 138.626C269.986 138.275 269.759 137.965 269.465 137.728C269.171 137.491 268.82 137.335 268.447 137.274C268.073 137.213 267.691 137.251 267.336 137.382C267.014 137.509 266.667 137.562 266.322 137.537C265.976 137.513 265.64 137.412 265.339 137.241C265.037 137.075 264.774 136.846 264.57 136.568C264.365 136.291 264.224 135.973 264.156 135.635L263.632 133.113L263.576 132.978C261.024 128.734 256.118 125.646 250.114 124.514C244.77 123.499 239.29 124.016 234.007 124.502C231.912 124.699 229.545 124.92 227.572 126.126C225.895 127.159 224.478 129.226 224.767 131.311C219.559 129.718 213.974 132.898 211.207 136.909C207.927 141.682 207.391 147.661 207.305 152.336C207.07 163.395 209.357 172.443 214.085 179.234C214.43 179.726 214.517 180.753 215.201 181.098L215.059 180.87C215.823 181.252 216.6 181.867 216.31 182.525C215.478 184.42 221.007 188.608 224.903 189.992C232.01 192.52 241.46 192.305 248.105 191.395L248.339 189.826C250.737 189.5 252.426 188.879 252.9 187.907C253.738 187.194 254.454 186.554 255.076 185.963L255.082 185.957C255.095 185.945 255.119 185.927 255.132 185.914C258.133 183.042 258.83 181.406 259.144 178.914C259.446 176.472 258.91 173.993 258.362 171.761C269.913 173.544 253.812 159.483 264.575 156.764C264.698 156.726 264.824 156.696 264.951 156.672C265.265 156.598 265.58 156.524 265.882 156.438C267.338 156.044 268.732 155.45 270.024 154.673C273.032 152.846 274.024 150.423 275.578 147.691C275.802 147.303 275.896 146.853 275.846 146.407C275.796 145.961 275.605 145.543 275.3 145.213V145.213Z" fill="#1C2226"/>
<path d="M335.32 283.833C335.313 284.91 335.301 286.417 335.252 288.28C335.246 288.539 335.24 288.803 335.233 289.074C335.153 292.5 335.073 295.373 334.944 298.565C334.937 298.786 334.931 299.002 334.919 299.223C334.746 303.677 334.475 308.862 334.007 317.074C333.138 332.242 331.621 319.159 330.099 324.479C330.025 324.744 329.945 325.058 329.871 325.427C329.64 326.766 329.251 328.073 328.712 329.32C327.904 329.8 327.072 330.262 326.252 330.723C323.916 332.021 321.543 333.269 319.151 334.457C317.808 335.121 316.458 335.773 315.102 336.4C314.886 336.499 314.676 336.597 314.467 336.689C307.522 339.895 300.365 342.62 293.047 344.846C291.617 345.276 290.193 345.695 288.75 346.082C287.246 346.5 285.742 346.894 284.22 347.263C272.893 350.038 261.303 351.603 249.646 351.932C248.074 351.981 246.49 351.999 244.899 351.999C244.11 351.999 243.334 351.993 242.545 351.987C242.304 351.987 242.064 351.981 241.823 351.975C241.127 351.956 240.406 351.944 239.678 351.926C225.611 351.488 211.659 349.249 198.163 345.264L197.59 345.098C196.702 344.827 195.821 344.563 194.94 344.28C190.871 342.994 186.863 341.555 182.913 339.962C179.899 338.75 176.92 337.45 173.976 336.062C173.949 336.055 173.924 336.042 173.902 336.025C173.285 335.742 172.663 335.447 172.046 335.145C171.966 335.102 171.88 335.059 171.794 335.016C169.494 333.897 167.22 332.724 164.97 331.498C163.078 327.161 160.415 326.331 158.763 322.517C158.282 321.384 157.934 320.199 157.727 318.987C157.727 318.974 157.721 318.962 157.721 318.944C157.894 321.232 156.987 314.884 157.715 318.919C157.709 318.845 157.702 318.765 157.696 318.673C157.678 318.451 157.653 318.181 157.616 317.842C155.502 297.243 155.638 273.684 154.719 254.271C154.657 253.016 154.594 251.815 154.528 250.667C154.51 250.285 154.485 249.91 154.46 249.541C154.503 249.43 154.553 249.313 154.608 249.203C154.62 249.171 154.634 249.14 154.651 249.11C154.669 249.072 154.69 249.035 154.713 249C154.725 248.981 154.744 248.957 154.756 248.938C154.765 248.917 154.775 248.896 154.787 248.877C154.842 248.791 154.904 248.698 154.972 248.612C155.003 248.575 155.027 248.544 155.058 248.514C155.079 248.482 155.104 248.453 155.132 248.428C155.151 248.398 155.174 248.371 155.2 248.348C155.225 248.323 155.249 248.292 155.28 248.262C155.293 248.242 155.31 248.225 155.329 248.212C155.378 248.156 155.432 248.105 155.49 248.059C155.71 247.857 155.944 247.672 156.192 247.505C156.279 247.45 156.371 247.394 156.457 247.333C157.079 246.962 157.733 246.649 158.411 246.398C158.646 246.312 158.88 246.232 159.133 246.146C159.225 246.121 159.311 246.09 159.404 246.059C159.539 246.016 159.675 245.973 159.817 245.943C160.519 245.733 161.278 245.555 162.097 245.389C162.196 245.371 162.301 245.352 162.406 245.327C162.554 245.297 162.708 245.272 162.862 245.248C163.071 245.211 163.287 245.174 163.503 245.137C165.334 244.848 167.411 244.632 169.704 244.491C169.92 244.479 170.135 244.466 170.351 244.454C170.604 244.442 170.857 244.429 171.115 244.417C171.331 244.405 171.553 244.399 171.775 244.393C171.991 244.38 172.213 244.374 172.441 244.368C173.063 244.349 173.704 244.331 174.358 244.319C176.219 244.282 178.179 244.294 180.238 244.337C181.194 244.362 182.168 244.386 183.166 244.429C183.234 244.429 183.296 244.436 183.357 244.436C184.226 244.466 185.102 244.503 186.002 244.552C186.63 244.583 187.265 244.614 187.9 244.651C188.498 244.688 189.102 244.725 189.712 244.768C190.187 244.792 190.662 244.829 191.142 244.86C191.549 244.891 191.956 244.922 192.363 244.946L192.918 244.983C193.22 245.008 193.522 245.026 193.83 245.057C194.508 245.112 195.186 245.168 195.876 245.223C196.561 245.284 197.257 245.346 197.954 245.407C198.65 245.469 199.353 245.537 200.056 245.604C200.13 245.61 200.197 245.617 200.265 245.623C200.906 245.69 201.547 245.752 202.195 245.82C202.343 245.832 202.497 245.844 202.645 245.863C203.262 245.924 203.891 245.997 204.514 246.063C204.705 246.084 204.895 246.103 205.086 246.124C205.574 246.177 206.055 246.223 206.546 246.281C207.194 246.355 207.853 246.422 208.494 246.508C208.994 246.564 209.493 246.619 209.992 246.681C210.775 246.773 211.57 246.871 212.365 246.976C212.667 247.013 212.969 247.05 213.271 247.093C215.54 247.376 217.833 247.69 220.163 248.016C223.695 248.514 227.282 249.055 230.894 249.639C234.513 250.224 238.152 250.841 241.811 251.491C242.736 251.657 243.66 251.823 244.591 251.995C245.01 252.075 245.429 252.155 245.848 252.235C246.563 252.364 247.278 252.5 247.993 252.635C248.708 252.77 249.424 252.906 250.139 253.047C250.989 253.213 251.846 253.379 252.697 253.545C258.3 254.652 263.872 255.834 269.309 257.07C270.203 257.273 271.096 257.482 271.984 257.685C273.759 258.097 275.518 258.515 277.26 258.94C277.741 259.051 278.216 259.167 278.69 259.284C279.874 259.579 281.057 259.875 282.222 260.176L282.426 260.231C283.283 260.441 284.121 260.656 284.959 260.877C286.938 261.394 288.884 261.917 290.797 262.446C292.066 262.797 293.322 263.151 294.563 263.51C296.418 264.045 298.237 264.586 300.006 265.134C300.443 265.269 300.881 265.405 301.313 265.534C302.607 265.934 303.883 266.34 305.122 266.745C306.108 267.065 307.07 267.391 308.019 267.717C308.968 268.043 309.899 268.369 310.811 268.695C311.397 268.905 311.976 269.126 312.556 269.335C313.388 269.643 314.208 269.95 315.009 270.258C315.256 270.35 315.496 270.448 315.736 270.541C315.891 270.608 316.038 270.664 316.186 270.725C316.476 270.842 316.772 270.953 317.056 271.07C317.345 271.18 317.629 271.297 317.912 271.42C318.19 271.531 318.473 271.648 318.744 271.765C319.022 271.875 319.293 271.992 319.564 272.115C319.792 272.208 320.014 272.306 320.23 272.404C320.668 272.595 321.105 272.786 321.531 272.983C321.74 273.081 321.95 273.173 322.159 273.272L322.64 273.493C322.708 273.53 322.776 273.561 322.844 273.592C322.998 273.665 323.158 273.745 323.312 273.819C323.669 273.985 324.021 274.164 324.366 274.33C324.828 274.564 325.278 274.797 325.71 275.025C326.147 275.259 326.573 275.492 326.98 275.72C327.047 275.757 327.109 275.794 327.177 275.831C327.269 275.88 327.362 275.935 327.454 275.984C327.769 276.163 328.071 276.347 328.373 276.526C328.964 276.889 329.525 277.245 330.049 277.602C330.166 277.682 330.277 277.762 330.395 277.836C330.783 278.113 331.153 278.383 331.498 278.66C331.498 278.666 331.498 278.666 331.504 278.666C331.621 278.752 331.732 278.845 331.843 278.931C331.936 279.017 332.034 279.091 332.127 279.177C332.447 279.454 332.743 279.718 333.014 279.989C333.105 280.072 333.192 280.161 333.273 280.253C333.309 280.283 333.342 280.316 333.372 280.352C333.495 280.475 333.606 280.598 333.711 280.721C333.727 280.738 333.741 280.756 333.754 280.776C333.902 280.948 334.037 281.121 334.167 281.293C334.229 281.379 334.296 281.465 334.352 281.551C334.426 281.656 334.5 281.766 334.561 281.871C334.617 281.957 334.666 282.049 334.716 282.136C334.846 282.357 334.958 282.59 335.048 282.831C335.118 282.994 335.173 283.162 335.215 283.335C335.262 283.498 335.297 283.665 335.32 283.833V283.833Z" fill="#1C2226"/>
<path opacity="0.2" d="M335.32 283.833C335.314 284.91 335.301 286.417 335.252 288.28C335.246 288.539 335.233 288.803 335.227 289.074C335.166 291.688 335.073 294.917 334.944 298.565C334.938 298.786 334.931 299.002 334.919 299.223C334.746 303.677 334.475 308.862 334.007 317.074C333.138 332.242 331.621 319.159 330.099 324.479C325.87 321.884 321.235 319.165 316.279 316.372C315.385 315.868 314.483 315.362 313.573 314.853C303.661 309.336 292.591 303.554 281.033 297.827C280.577 297.599 280.115 297.372 279.658 297.15C253.184 284.092 224.287 271.39 200.876 262.913C196.357 261.277 192.042 259.801 187.987 258.503C179.443 255.778 172.059 253.871 166.375 253.047C160.458 252.186 156.371 252.493 154.719 254.271C154.658 253.016 154.594 251.815 154.528 250.667C154.503 250.285 154.479 249.91 154.454 249.541C154.492 249.44 154.542 249.343 154.589 249.246C154.596 249.231 154.601 249.217 154.608 249.203C154.62 249.171 154.634 249.14 154.651 249.11C154.67 249.072 154.69 249.035 154.713 249C154.733 248.956 154.758 248.915 154.787 248.877C154.842 248.79 154.904 248.698 154.972 248.612C155.022 248.548 155.075 248.486 155.132 248.428C155.151 248.398 155.174 248.371 155.2 248.348C155.225 248.323 155.249 248.292 155.28 248.262C155.293 248.242 155.31 248.225 155.329 248.212C155.378 248.156 155.432 248.105 155.49 248.059C155.71 247.857 155.944 247.672 156.192 247.505C156.279 247.45 156.371 247.394 156.457 247.333C157.079 246.962 157.733 246.649 158.411 246.398C158.646 246.312 158.88 246.232 159.133 246.146C159.225 246.121 159.311 246.09 159.404 246.059C159.539 246.016 159.675 245.973 159.817 245.943C160.52 245.733 161.278 245.555 162.098 245.389C162.344 245.34 162.603 245.291 162.862 245.247C163.071 245.211 163.287 245.174 163.503 245.137C165.334 244.848 167.411 244.632 169.704 244.491C169.92 244.479 170.135 244.466 170.351 244.454C170.604 244.442 170.857 244.429 171.116 244.417C171.331 244.405 171.553 244.399 171.775 244.392C171.991 244.38 172.213 244.374 172.441 244.368C173.063 244.349 173.704 244.331 174.358 244.319C176.219 244.288 178.18 244.3 180.238 244.343C181.194 244.362 182.168 244.392 183.166 244.436C183.228 244.436 183.296 244.442 183.357 244.442C184.226 244.466 185.108 244.509 186.002 244.552C186.63 244.583 187.265 244.614 187.9 244.651C188.498 244.688 189.102 244.725 189.712 244.768C190.187 244.792 190.662 244.829 191.143 244.86C191.549 244.891 191.956 244.921 192.363 244.946C192.85 244.983 193.337 245.02 193.83 245.057C194.508 245.112 195.186 245.168 195.877 245.223C196.561 245.284 197.257 245.346 197.954 245.407C198.65 245.469 199.353 245.537 200.056 245.604C200.13 245.61 200.198 245.617 200.265 245.623C200.906 245.69 201.547 245.752 202.195 245.82C205.782 246.182 209.474 246.607 213.271 247.093C215.54 247.382 217.837 247.691 220.163 248.022C223.695 248.52 227.282 249.061 230.895 249.639C234.513 250.224 238.152 250.841 241.811 251.491C242.736 251.657 243.66 251.823 244.591 251.995C245.725 252.204 246.859 252.418 247.994 252.635C248.709 252.77 249.424 252.906 250.139 253.047C250.989 253.213 251.846 253.379 252.697 253.545C258.3 254.652 263.872 255.833 269.309 257.07C270.203 257.273 271.096 257.482 271.984 257.685C273.759 258.097 275.518 258.515 277.261 258.94C277.741 259.057 278.216 259.174 278.691 259.29C279.88 259.586 281.058 259.881 282.223 260.176V260.182C282.29 260.195 282.358 260.213 282.426 260.232C283.277 260.447 284.121 260.662 284.959 260.884C286.938 261.4 288.884 261.921 290.797 262.446C292.067 262.803 293.324 263.153 294.563 263.51C296.418 264.051 298.237 264.593 300.006 265.134C300.444 265.269 300.881 265.405 301.313 265.534C302.607 265.94 303.877 266.344 305.122 266.745C306.108 267.065 307.07 267.391 308.019 267.717C308.968 268.043 309.899 268.369 310.811 268.695C311.403 268.905 311.983 269.12 312.556 269.329C313.394 269.636 314.208 269.944 315.009 270.258C315.256 270.35 315.496 270.448 315.737 270.541C316.186 270.713 316.624 270.891 317.056 271.07C317.345 271.18 317.629 271.297 317.912 271.42C318.19 271.531 318.473 271.648 318.745 271.765C319.022 271.875 319.293 271.992 319.564 272.115C319.792 272.208 320.014 272.306 320.23 272.404C320.668 272.595 321.105 272.786 321.531 272.983C321.74 273.081 321.95 273.173 322.159 273.272L322.64 273.493C322.708 273.53 322.776 273.561 322.844 273.592C323.368 273.838 323.873 274.084 324.366 274.33C324.828 274.563 325.278 274.797 325.71 275.025C326.222 275.295 326.709 275.56 327.177 275.831C327.269 275.88 327.362 275.935 327.454 275.984C327.769 276.163 328.071 276.347 328.373 276.526C328.965 276.889 329.526 277.245 330.049 277.602C330.567 277.959 331.048 278.309 331.498 278.66C331.498 278.666 331.498 278.666 331.504 278.666C331.72 278.838 331.929 279.011 332.127 279.177C332.447 279.454 332.743 279.718 333.014 279.989C333.105 280.072 333.192 280.161 333.273 280.253C333.309 280.283 333.342 280.316 333.372 280.352C333.501 280.493 333.631 280.635 333.754 280.776C333.902 280.948 334.038 281.121 334.167 281.293C334.229 281.379 334.297 281.465 334.352 281.551C334.426 281.656 334.5 281.766 334.562 281.871C334.617 281.957 334.666 282.049 334.716 282.135C334.847 282.357 334.958 282.59 335.049 282.831C335.116 282.994 335.172 283.163 335.215 283.335C335.262 283.498 335.297 283.665 335.32 283.833V283.833Z" fill="black"/>
</g>
<defs>
<clipPath id="clip0_32_84">
<rect width="485" height="352" fill="white"/>
</clipPath>
</defs>
</svg>
