<svg width="277" height="47" viewBox="0 0 277 47" fill="none" xmlns="http://www.w3.org/2000/svg">
<path d="M43.7305 6.024L69.3865 21.888V26.016L51.1705 37.416L48.9865 34.44L65.9305 23.976L41.7865 9.072L43.7305 6.024ZM19.4425 10.488L21.3865 13.584L4.4425 23.976L27.6505 38.304L25.4905 41.256L0.986496 26.016V21.888L19.4425 10.488ZM25.4905 46.128L22.2265 44.664L43.8265 0.143998L47.0425 1.728L25.4905 46.128Z" fill="#083E65"/>
<path d="M93.3918 39.552C90.7838 39.552 88.5118 38.92 86.5758 37.656C84.6558 36.392 83.1678 34.496 82.1118 31.968C81.0558 29.44 80.5278 26.272 80.5278 22.464C80.5278 19.616 80.9038 17.128 81.6558 15C82.4238 12.872 83.4558 11.096 84.7518 9.672C86.0638 8.248 87.5438 7.184 89.1918 6.48C90.8558 5.776 92.5758 5.424 94.3518 5.424C96.5118 5.424 98.3038 5.736 99.7278 6.36C101.152 6.968 102.512 7.864 103.808 9.048L101.288 11.664C100.28 10.72 99.2158 10.024 98.0958 9.576C96.9918 9.128 95.7518 8.904 94.3758 8.904C93.1758 8.904 92.0158 9.136 90.8958 9.6C89.7758 10.064 88.7678 10.824 87.8718 11.88C86.9918 12.92 86.2878 14.304 85.7598 16.032C85.2478 17.76 84.9918 19.904 84.9918 22.464C84.9918 25.648 85.3198 28.24 85.9758 30.24C86.6478 32.24 87.6318 33.712 88.9278 34.656C90.2398 35.584 91.8558 36.048 93.7758 36.048C94.9278 36.048 96.0158 35.912 97.0398 35.64C98.0798 35.368 99.0878 34.976 100.064 34.464V24.384H93.5598L93.0558 20.928H104.192V36.672C102.704 37.472 101.12 38.152 99.4398 38.712C97.7598 39.272 95.7438 39.552 93.3918 39.552ZM115.981 13.728V31.632C115.981 33.296 116.325 34.496 117.013 35.232C117.701 35.968 118.773 36.336 120.229 36.336C121.621 36.336 122.933 35.944 124.165 35.16C125.413 34.36 126.381 33.416 127.069 32.328V13.728H131.101V39H127.669L127.333 35.592C126.341 36.872 125.117 37.856 123.661 38.544C122.205 39.216 120.733 39.552 119.245 39.552C116.797 39.552 114.965 38.904 113.749 37.608C112.549 36.296 111.949 34.464 111.949 32.112V13.728H115.981ZM149.322 36.216C151.258 36.216 152.786 35.856 153.906 35.136C155.042 34.4 155.61 33.424 155.61 32.208C155.61 31.44 155.466 30.776 155.178 30.216C154.906 29.656 154.338 29.152 153.474 28.704C152.61 28.256 151.282 27.808 149.49 27.36C147.746 26.928 146.226 26.432 144.93 25.872C143.65 25.296 142.65 24.552 141.93 23.64C141.226 22.728 140.874 21.544 140.874 20.088C140.874 18.664 141.274 17.44 142.074 16.416C142.89 15.376 144.018 14.584 145.458 14.04C146.898 13.48 148.57 13.2 150.474 13.2C152.506 13.2 154.274 13.472 155.778 14.016C157.298 14.544 158.586 15.2 159.642 15.984L157.866 18.72C156.906 18.064 155.85 17.528 154.698 17.112C153.546 16.68 152.154 16.464 150.522 16.464C148.538 16.464 147.13 16.776 146.298 17.4C145.466 18.008 145.05 18.8 145.05 19.776C145.05 20.512 145.25 21.128 145.65 21.624C146.066 22.104 146.762 22.544 147.738 22.944C148.714 23.328 150.058 23.752 151.77 24.216C153.418 24.648 154.85 25.168 156.066 25.776C157.298 26.384 158.258 27.184 158.946 28.176C159.634 29.168 159.978 30.448 159.978 32.016C159.978 33.808 159.466 35.264 158.442 36.384C157.418 37.488 156.09 38.296 154.458 38.808C152.842 39.304 151.13 39.552 149.322 39.552C147.034 39.552 145.082 39.224 143.466 38.568C141.866 37.896 140.522 37.088 139.434 36.144L141.738 33.48C142.73 34.296 143.866 34.96 145.146 35.472C146.442 35.968 147.834 36.216 149.322 36.216ZM189.576 37.728C188.712 38.304 187.664 38.752 186.432 39.072C185.2 39.392 183.992 39.552 182.808 39.552C180.088 39.552 177.992 38.84 176.52 37.416C175.048 35.992 174.312 34.16 174.312 31.92V16.848H168.504V13.728H174.312V7.992L178.344 7.512V13.728H187.08L186.6 16.848H178.344V31.872C178.344 33.28 178.712 34.352 179.448 35.088C180.2 35.824 181.44 36.192 183.168 36.192C184.112 36.192 184.984 36.08 185.784 35.856C186.584 35.632 187.328 35.344 188.016 34.992L189.576 37.728ZM216.389 33.48C216.389 34.488 216.557 35.224 216.893 35.688C217.229 36.152 217.749 36.496 218.453 36.72L217.469 39.552C216.381 39.408 215.429 39.064 214.613 38.52C213.797 37.96 213.205 37.12 212.837 36C211.925 37.168 210.789 38.056 209.429 38.664C208.069 39.256 206.565 39.552 204.917 39.552C202.389 39.552 200.397 38.84 198.941 37.416C197.485 35.992 196.757 34.104 196.757 31.752C196.757 29.144 197.773 27.144 199.805 25.752C201.837 24.36 204.773 23.664 208.613 23.664H212.333V21.552C212.333 19.728 211.797 18.44 210.725 17.688C209.669 16.92 208.197 16.536 206.309 16.536C205.477 16.536 204.501 16.64 203.381 16.848C202.261 17.04 201.045 17.368 199.733 17.832L198.677 14.784C200.229 14.208 201.685 13.8 203.045 13.56C204.405 13.32 205.701 13.2 206.933 13.2C210.085 13.2 212.445 13.936 214.013 15.408C215.597 16.864 216.389 18.848 216.389 21.36V33.48ZM205.949 36.48C207.197 36.48 208.389 36.168 209.525 35.544C210.661 34.904 211.597 34.024 212.333 32.904V26.4H208.685C205.901 26.4 203.933 26.88 202.781 27.84C201.645 28.8 201.077 30.088 201.077 31.704C201.077 33.272 201.477 34.464 202.277 35.28C203.093 36.08 204.317 36.48 205.949 36.48ZM248.146 13.728L238.954 39H234.274L225.154 13.728H229.426L236.746 35.328L243.97 13.728H248.146ZM265.479 13.2C267.863 13.2 269.855 13.744 271.455 14.832C273.071 15.904 274.279 17.424 275.079 19.392C275.895 21.36 276.303 23.68 276.303 26.352C276.303 28.928 275.887 31.208 275.055 33.192C274.223 35.176 272.999 36.736 271.383 37.872C269.783 38.992 267.799 39.552 265.431 39.552C263.063 39.552 261.071 39.008 259.455 37.92C257.839 36.832 256.615 35.304 255.783 33.336C254.967 31.352 254.559 29.04 254.559 26.4C254.559 23.792 254.975 21.496 255.807 19.512C256.639 17.528 257.863 15.984 259.479 14.88C261.111 13.76 263.111 13.2 265.479 13.2ZM265.479 16.488C263.303 16.488 261.655 17.296 260.535 18.912C259.431 20.512 258.879 23.008 258.879 26.4C258.879 29.728 259.423 32.2 260.511 33.816C261.615 35.432 263.255 36.24 265.431 36.24C267.607 36.24 269.239 35.432 270.327 33.816C271.431 32.2 271.983 29.712 271.983 26.352C271.983 22.992 271.439 20.512 270.351 18.912C269.263 17.296 267.639 16.488 265.479 16.488Z" fill="white"/>
</svg>
